<svg width="618" height="96" viewBox="0 0 618 96" fill="none" xmlns="http://www.w3.org/2000/svg">
<path d="M0.896 2.73599C7.552 2.22399 14.336 1.96799 21.248 1.96799C28.2453 1.96799 34.2613 3.67466 39.296 7.088C44.416 10.5013 46.976 15.4507 46.976 21.936C46.976 26.8 45.6107 31.3227 42.88 35.504C40.2347 39.6853 37.0347 42.8427 33.28 44.976C39.3387 46.8533 44.416 50.096 48.512 54.704C52.608 59.312 54.656 64.4747 54.656 70.192C54.656 78.2133 52.096 84.3147 46.976 88.496C41.9413 92.6773 34.9867 94.768 26.112 94.768C17.3227 94.768 8.91733 94.4267 0.896 93.744V2.73599ZM26.88 89.264C33.1093 89.264 38.2293 87.5573 42.24 84.144C46.2507 80.6453 48.256 76.208 48.256 70.832C48.256 65.456 46.2933 60.8053 42.368 56.88C38.528 52.9547 33.2373 50.2667 26.496 48.816C23.3387 48.1333 19.6693 47.792 15.488 47.792C11.392 47.792 8.576 47.792 7.04 47.792V88.624C10.7947 89.0507 17.408 89.264 26.88 89.264ZM40.832 21.808C40.832 17.1147 38.8693 13.488 34.944 10.928C31.104 8.368 26.752 7.088 21.888 7.088C17.1093 7.088 12.16 7.25866 7.04 7.6V42.544C8.14933 42.544 10.24 42.544 13.312 42.544C16.384 42.544 20.9067 42.8 26.88 43.312C30.72 41.264 34.0053 38.32 36.736 34.48C39.4667 30.64 40.832 26.416 40.832 21.808ZM81.396 94V2.48H87.54V88.368H129.652V94H81.396ZM151.067 81.84C142.619 72.7093 138.395 61.488 138.395 48.176C138.395 34.864 142.619 23.6853 151.067 14.64C159.6 5.50933 170.352 0.943993 183.323 0.943993C196.294 0.943993 207.046 5.50933 215.579 14.64C224.112 23.6853 228.379 34.864 228.379 48.176C228.379 61.488 224.112 72.7093 215.579 81.84C207.046 90.9707 196.294 95.536 183.323 95.536C170.352 95.536 159.6 90.9707 151.067 81.84ZM155.675 18.608C148.592 26.544 145.051 36.4 145.051 48.176C145.051 59.952 148.592 69.8507 155.675 77.872C162.843 85.8933 172.059 89.904 183.323 89.904C194.672 89.904 203.888 85.8933 210.971 77.872C218.139 69.8507 221.723 59.952 221.723 48.176C221.723 36.4 218.139 26.544 210.971 18.608C203.888 10.5867 194.672 6.576 183.323 6.576C171.974 6.576 162.758 10.5867 155.675 18.608ZM296.067 6.576C284.888 6.576 275.758 10.5867 268.675 18.608C261.592 26.6293 258.051 36.4853 258.051 48.176C258.051 59.7813 262.062 69.6373 270.083 77.744C278.104 85.8507 287.875 89.904 299.395 89.904C309.294 89.904 317.528 88.5387 324.099 85.808V48.176H330.243V88.624C322.819 93.232 312.408 95.536 299.011 95.536C285.699 95.536 274.435 90.9707 265.219 81.84C256.003 72.624 251.395 61.4027 251.395 48.176C251.395 34.864 255.576 23.6853 263.939 14.64C272.302 5.50933 283.011 0.943993 296.067 0.943993C306.307 0.943993 316.675 2.65066 327.171 6.064L325.507 11.184C315.267 8.112 305.454 6.576 296.067 6.576ZM413.01 62.256L399.826 94H393.298L431.826 1.84H435.41L474.066 94H467.154L453.97 62.256H413.01ZM433.234 12.08C433.149 12.1653 432.978 12.6773 432.722 13.616C431.527 17.2853 430.375 20.4 429.266 22.96L415.186 57.008H451.794L437.714 23.088C434.727 16.6027 433.234 12.9333 433.234 12.08ZM493.021 94V2.992C500.104 2.30933 506.973 1.96799 513.629 1.96799C522.589 1.96799 529.757 4.05866 535.133 8.24C540.594 12.4213 543.325 18.736 543.325 27.184C543.325 35.5467 539.613 42.4587 532.189 47.92C524.85 53.296 516.061 55.984 505.821 55.984C505.394 55.984 504.925 55.984 504.413 55.984V51.76C504.754 51.76 505.053 51.76 505.309 51.76C513.757 51.76 521.096 49.5413 527.325 45.104C533.554 40.6667 536.669 34.9067 536.669 27.824C536.669 20.656 534.493 15.4933 530.141 12.336C525.789 9.09333 519.944 7.47199 512.605 7.47199C508.765 7.47199 504.285 7.64266 499.165 7.98399V94H493.021ZM567.396 94V2.992C574.479 2.30933 581.348 1.96799 588.004 1.96799C596.964 1.96799 604.132 4.05866 609.508 8.24C614.969 12.4213 617.7 18.736 617.7 27.184C617.7 35.5467 613.988 42.4587 606.564 47.92C599.225 53.296 590.436 55.984 580.196 55.984C579.769 55.984 579.3 55.984 578.788 55.984V51.76C579.129 51.76 579.428 51.76 579.684 51.76C588.132 51.76 595.471 49.5413 601.7 45.104C607.929 40.6667 611.044 34.9067 611.044 27.824C611.044 20.656 608.868 15.4933 604.516 12.336C600.164 9.09333 594.319 7.47199 586.98 7.47199C583.14 7.47199 578.66 7.64266 573.54 7.98399V94H567.396Z" fill="black"/>
</svg>
